<svg version="1.1" id="svg2985" xmlns="http://www.w3.org/2000/svg" x="0" y="0" viewBox="-192 293.9 210 255" style="enable-background:new -192 293.9 210 255" xml:space="preserve"><style>.st3{fill:#fff}.st7{fill:#038249}</style><switch><g><filter height="1.215" width="1.217" y="-.108" x="-.109" id="filter3970-5" color-interpolation-filters="sRGB"><feGaussianBlur stdDeviation=".128" id="feGaussianBlur3972-8"/></filter><g id="g4146" transform="translate(39.768 209.718)"/><g id="g4630" transform="matrix(1.0006 0 0 1 -1.376 203.406)" style="enable-background:new"><g id="g3062"><path id="rect4031" d="m-131.2 90.5 46.1.2 68.4-.2c22.9-.1 36.1 15.9 36.1 40.4v154.6c0 12.3-14 27.7-21.4 35.7s-22.1 24.3-33.6 24.3h-113c-22.9 0-41.3-5.6-41.3-30.2l-.3-162.3c0-6.4 17.3-24.3 24.8-32.4 7.4-8 22.7-30.2 34.2-30.1"/><path id="rect3767" d="M-122.4 103.2h104.5c13.8 0 24.8 11.1 24.9 24.9l.9 152.4c0 2-12.6 32-25.8 32h-104.5c-13.8 0-24.9-11.1-24.9-24.9V128.1c0-13.8 11.1-24.9 24.9-24.9" style="fill:#005f00"/><path id="rect3861" d="M-137.4 118.1h99.6c13.7 0 24.9 11.2 24.9 24.9v159.5c0 13.8-11.1 24.9-24.9 24.9h-99.6c-13.7 0-24.9-11.2-24.9-24.9V143.1c0-13.8 11.2-25 24.9-25" style="fill:#cddacd"/><path id="rect3765" class="st3" d="M-147.3 133.1h104.5c13.7 0 24.9 11.2 24.9 24.9v149.5c0 13.8-11.1 24.9-24.9 24.9h-104.5c-13.7 0-24.9-11.2-24.9-24.9V158c0-13.7 11.1-24.9 24.9-24.9"/><linearGradient id="rect3008_1_" gradientUnits="userSpaceOnUse" x1="-324.883" y1="569.587" x2="-324.883" y2="531.068" gradientTransform="matrix(4.9807 0 0 -4.9841 1515.62 2981.96)"><stop offset="0" style="stop-color:#d0e4cc"/><stop offset="1" style="stop-color:#fbffec"/></linearGradient><path id="rect3008" d="M-157.3 143.1h109.5c11 0 19.9 8.9 19.9 19.9v149.5c0 11-8.9 19.9-19.9 19.9h-109.5c-11 0-19.9-8.9-19.9-19.9V163c0-11 8.9-19.9 19.9-19.9" style="fill:url(#rect3008_1_)"/><path id="path3932" class="st3" d="M2.2 115.7c0 1.5-1.3 2.8-2.8 2.8s-2.8-1.3-2.8-2.8 1.3-2.8 2.8-2.8 2.8 1.2 2.8 2.8"/><g id="path3936" style="filter:url(#filter3970-5)"><linearGradient id="SVGID_1_" gradientUnits="userSpaceOnUse" x1="-315.771" y1="590.47" x2="-318.887" y2="587.001" gradientTransform="matrix(7.1013 0 0 -6.6887 2243.616 4061.265)"><stop offset="0" style="stop-color:#fff"/><stop offset="1" style="stop-color:#fff;stop-opacity:0"/></linearGradient><path style="fill:url(#SVGID_1_)" d="m-2.8 114.3-28.8 24.6 8.2 6 25.2-28.3z"/></g><path id="path3882" class="st3" d="M-15 137.6c0 4.8-3.9 8.7-8.7 8.7s-8.7-3.9-8.7-8.7 3.9-8.7 8.7-8.7c4.7 0 8.7 3.9 8.7 8.7"/></g></g><path class="st7" d="M-74.6 400c.6-1 18.8-7.5 21.3-8.2 3.2-6.7-5.6-12.5-9.4-15.7-1.5-.1-4.6-1.2-4.9 1.2.1 2.6.8 3.5-.6 6-1.6 2.8-11 13.1-14.3 10.3-2.9-2.5-5.6-5.2-8.9-7.4 3.9-1.3 13.3-2.7 16.3-4.8 3.2-.5 1.7-6 2.1-8.4-2.5-2.1-2.6-6.9-6.1-7.9-1.8-2.3-8.5-2.9-11.1-3-1.6 2.4.4 4.6 2.4 5.5.8 3.5-12.5 12.2-15.3 13.5-2.3 1.1-5.2.8-7.8 1.3l-1.5-5.3-.9-2c-9.1-13.6-17.2 4.2-25.9 2l-1.3.6c-1.1-.2-2.2-.5-3.2.5-1.2 3.6 11 10.7 13.6 11.6-.5 5-3.1 9.9-8.3 9.9-1.2 1.2-3 .3-4.3-.2-6.4-2.5-5-1.4-11.1-1.2-3.3 5.9.3 14.9 5 18.1 5.7 1.6.9 1 7.9 1.9-4 11-12 17-18.5 23.6l-7.1 6.7c-8 7.3-.5 5.7 5.6 3.7 11.3-3.7 17.7-12.9 25.9-21.3 2 2.7 5.4 1 7.3 3.1-1.6 3.6-5 5.6-7.3 8.6-3.5 4.3-6.8 3.6-10.4 6.6-1.8 3.2-4 8.3-1.9 11.8 3.9-.3 7.7-1.3 11.4-2.4-2.3 3.3-6.8 8.4-9.8 10.5-3-.1-4.6 3-6.5 5 1.5 4.1-1.7 6.6.6 10.7 4.2 2.6 19.6-9.9 21.6-5.8.2 5.4-6.4 19.1-12 19.9-2.4.3-6.5-11.5-6.8-13.7-3 7.1-.7 26.9 6.1 31 7.5 4.3 20.5-13.8 21.6-20.7 1.8-3.6 3.6-7.7 4.7-11.5 0-.4.1-.8.2-1.2 0-.6 0-1.2.1-1.7.1-3.2-.4-8.6-3.1-10.3-.9-1.8-3.7-3.1-5.4-3-1.8-.5-3.9-.8-6.1-.4 4.7-6.1 11.6-9.2 16.6-14.9.2-1.8.5-5.2-1.5-5.9-.9-1-2.2-1.9-3.5-2.5 1.4-4 9.5-10.9 12.5-14 1.6-5-2.4-5.9-4-9.8-1.1.2-3.7-1.8-5.5-2-2.7-1.9-12.6 4.3-15.6 5.2 6-9.7 12.8-29.1 18.8-35.2 4.8-4.9 18.6 7.8 22.4 11.6-3.1 3.7-8.1 3.9-11.6 6.8-1.3-.3-3 1.3-1 1.4 2.4.3 10.5-2.8 13.3-3.3 3.2-.7 3.5.2 5 1.4 1.1 1.3 3.4 3.8 5.2 5.6.3.2 10.7 11.2 11.3 11.7 7 6.5 11.2 17 17.1 19.4 3.4 1.3 7.9-2.5 11.7-3.4.7-.2 5.8-.1 6.1-1.1l1-.6c-8.1-13.5-27.5-19.4-42.2-37.9m19.8 96.8c-4.6-4-24-13.5-28.8-9 4.4 5.9 8.3 12.4 12.5 18.3 4 5.5 9.2 11.2 15.2 13.1 11.3 3.7 6.3-17.9 1.1-22.4"/><path class="st7" d="M-51.5 466.1c-3.7-7.8-5.8-7.1-12.3-7.8-4.6 2.6-9.8 2.1-15 2.8q0-2.85.6-5.7c4.8-6.9 14.2-7.4 16.9-16.9-10.2-17.3-19.4-3.3-32.5-1.7l2-3.7c.8-3.1 2.7-4.5 4-7.4 1.6-.9 1.4-5.1 3.3-7.1 0-2.7-2-4.5-5.3-6.1-1.6-.8-3.9-2.7-4.9 0-.1.4-2.3 3.9-2.6 4.3-1.3 2.2-3.2 9.2-3.9 10.3-.2.3-.9 2.8-1.3 3.6 0 1.5-4.5 8.8-4.9 11.8-6.5 5.2 1.3 6.8 3 10.8.4 2.3 9.3-.7 15-1.2-4.8 11.2-18.6 19-27.9 22.1-3.1 4-1.7 8.8-3.1 13.5 9.2 7.1 15.8-5 24.2-6.6-2.5 6.2-7.8 16.9-11.8 21.4-9.3 12-16.2 1.3-13.3 6.4 3.8 3.7.1 5.4 5.6 6.2 2.8.4 1.5 2 4.3 1.9s5.4-2.2 8-3.8c14.6-9.7 13.1-21.7 20.2-37.6 10.4-3.8 21.3-.9 31.9-1.7l1.7-1.9c1.5-2.8-1-3.7-1.9-5.9"/></g></switch></svg>